<?xml version="1.0" standalone="no"?>
<!DOCTYPE svg PUBLIC "-//W3C//DTD SVG 1.1//EN" "http://www.w3.org/Graphics/SVG/1.1/DTD/svg11.dtd" >
<svg xmlns="http://www.w3.org/2000/svg">
<metadata>
Created by FontForge 20120731 at Thu Apr 21 16:09:59 2016
 By admin
</metadata>
<defs>
<font id="iconfont" horiz-adv-x="1024" >
  <font-face 
    font-family="iconfont"
    font-weight="500"
    font-stretch="normal"
    units-per-em="1024"
    panose-1="2 0 6 3 0 0 0 0 0 0"
    ascent="896"
    descent="-128"
    x-height="792"
    bbox="11 -212 1014 867"
    underline-thickness="50"
    underline-position="-100"
    unicode-range="U+0078-E647"
  />
<missing-glyph horiz-adv-x="374" 
d="M34 0v682h272v-682h-272zM68 34h204v614h-204v-614z" />
    <glyph glyph-name=".notdef" horiz-adv-x="374" 
d="M34 0v682h272v-682h-272zM68 34h204v614h-204v-614z" />
    <glyph glyph-name=".null" horiz-adv-x="0" 
 />
    <glyph glyph-name="nonmarkingreturn" horiz-adv-x="341" 
 />
    <glyph glyph-name="x" unicode="x" horiz-adv-x="1001" 
d="M281 543q-27 -1 -53 -1h-83q-18 0 -36.5 -6t-32.5 -18.5t-23 -32t-9 -45.5v-76h912v41q0 16 -0.5 30t-0.5 18q0 13 -5 29t-17 29.5t-31.5 22.5t-49.5 9h-133v-97h-438v97zM955 310v-52q0 -23 0.5 -52t0.5 -58t-10.5 -47.5t-26 -30t-33 -16t-31.5 -4.5q-14 -1 -29.5 -0.5
t-29.5 0.5h-32l-45 128h-439l-44 -128h-29h-34q-20 0 -45 1q-25 0 -41 9.5t-25.5 23t-13.5 29.5t-4 30v167h911zM163 247q-12 0 -21 -8.5t-9 -21.5t9 -21.5t21 -8.5q13 0 22 8.5t9 21.5t-9 21.5t-22 8.5zM316 123q-8 -26 -14 -48q-5 -19 -10.5 -37t-7.5 -25t-3 -15t1 -14.5
t9.5 -10.5t21.5 -4h37h67h81h80h64h36q23 0 34 12t2 38q-5 13 -9.5 30.5t-9.5 34.5q-5 19 -11 39h-368zM336 498v228q0 11 2.5 23t10 21.5t20.5 15.5t34 6h188q31 0 51.5 -14.5t20.5 -52.5v-227h-327z" />
    <glyph glyph-name="uniE600" unicode="&#xe600;" 
d="M78 607h868q16 0 16 -16v-48q0 -16 -16 -16h-868q-16 0 -16 16v48q0 16 16 16zM962 21q0 3 -1 5t-3 3l-1 1l-425 408q-12 10 -20 10q-3 0 -8 -3t-9 -5l-3 -3l-426 -407l-4 -8l4 -9l38 -39q3 -5 8 -5l8 5l368 355q12 11 24 11q5 0 11 -2.5t9 -5.5l4 -3l368 -356
q1 0 1.5 -1t3 -2t4.5 -1t4 1t3 2l1 1l36 40q5 3 5 8z" />
    <glyph glyph-name="uniE601" unicode="&#xe601;" 
d="M700 738l-9 -5l-410 -427q-10 -10 -10 -18q0 -3 2.5 -7.5t5.5 -7.5l2 -3l411 -428l7 -4l9 4l40 38q4 3 4 8l-4 8l-358 370q-10 10 -10 22q0 5 2.5 10.5t4.5 8.5l3 3l358 370l2 2l1.5 2.5t1.5 4.5t-1.5 4t-2.5 3h-1l-40 37q-3 5 -8 5z" />
    <glyph glyph-name="uniE602" unicode="&#xe602;" 
d="M176 160l3 -7l319 -307q8 -8 14 -8q2 0 5.5 2t5.5 4l3 2l319 308l3 6l-3 6l-28 30q-2 3 -6 3l-6 -3l-263 -255v782q0 6 -4.5 10.5t-10.5 4.5h-30q-6 0 -10.5 -4.5t-4.5 -10.5v-782l-263 255l-7 4l-6 -4l-27 -30q-3 -2 -3 -6z" />
    <glyph glyph-name="uniE603" unicode="&#xe603;" 
d="M176 416l3 7l319 307q8 8 14 8q2 0 5.5 -2t5.5 -4l3 -2l319 -308l3 -6l-3 -6l-28 -30q-2 -3 -6 -3l-6 3l-263 255v-782q0 -6 -4.5 -10.5t-10.5 -4.5h-30q-6 0 -10.5 4.5t-4.5 10.5v782l-263 -255l-7 -4l-6 4l-27 30q-3 0 -3 6z" />
    <glyph glyph-name="uniE604" unicode="&#xe604;" 
d="M62 121q0 3 1.5 5t2.5 3l1 1l427 423q10 11 18 11q3 0 8 -3l7 -5l3 -3l428 -423l4 -8l-4 -9l-97 -96q-4 -4 -8 -4l-9 4l-310 308q-10 11 -22 11q-5 0 -10.5 -3t-8.5 -5l-3 -3l-310 -308q-1 0 -1.5 -1t-3 -2.5t-4.5 -1.5t-4 1.5t-3 2.5l-1 1l-96 96q-5 3 -5 8z" />
    <glyph glyph-name="uniE605" unicode="&#xe605;" 
d="M62 455q0 -3 1.5 -5t2.5 -3l1 -1l427 -423q10 -11 18 -11q3 0 8 3l7 5l3 3l428 423l4 8l-4 9l-97 96q-4 4 -8 4l-9 -4l-310 -308q-10 -11 -22 -11q-5 0 -10.5 3t-8.5 5l-3 3l-310 308q-1 0 -1.5 1t-3 2.5t-4.5 1.5t-4 -1.5t-3 -2.5l-1 -1l-96 -96q-5 -3 -5 -8z" />
    <glyph glyph-name="uniE606" unicode="&#xe606;" 
d="M345 738l9 -5l423 -427q11 -10 11 -18q0 -2 -2 -4l-2 -6q-2 -2 -3.5 -4t-2.5 -3l-1 -1l-423 -428l-8 -4l-9 4l-96 97q-4 4 -4 8l4 9l308 310q11 10 11 22q0 5 -3 10.5t-5 8.5l-3 3l-308 310q0 1 -1 1.5t-2.5 3t-1.5 4.5t1.5 4t2.5 3l1 1l96 96q3 5 8 5z" />
    <glyph glyph-name="uniE607" unicode="&#xe607;" 
d="M679 738l-9 -5l-423 -427q-11 -10 -11 -18q0 -2 2 -4l2 -6q2 -2 3.5 -4t2.5 -3l1 -1l423 -428l8 -4l9 4l96 97q4 4 4 8l-4 9l-308 310q-11 10 -11 22q0 5 3 10.5t5 8.5l3 3l308 310q0 1 1 1.5t2.5 3t1.5 4.5t-1.5 4t-2.5 3l-1 1l-96 96q-3 5 -8 5z" />
    <glyph glyph-name="uniE608" unicode="&#xe608;" 
d="M420 532q20 32 -7 67q-13 17 -38.5 51t-41 54.5t-19.5 24.5q-8 7 -26 8.5t-48.5 -6.5t-62.5 -27q-127 -91 -52 -299q15 -29 39.5 -69.5t71.5 -106t99 -126.5t124.5 -126t145.5 -109q30 -17 81 -25t100.5 -1.5t70.5 29.5q3 4 10 12q21 22 30.5 34t20.5 30.5t9.5 33
t-13.5 27.5q-8 6 -45.5 36.5t-70.5 57.5l-33 28q-3 1 -6.5 3t-15 5.5t-22.5 3.5t-27 -6t-29 -19q-26 -19 -53.5 -20t-42.5 13q-16 12 -45.5 39t-80.5 88t-86 123q-23 66 24 125q9 10 14.5 17t8 8.5t4.5 3.5t4 6zM371 578q4 -7 4.5 -13.5t-4 -14t-7 -11.5t-11.5 -13.5
t-13 -13.5q-13 -16 -21.5 -37t-11.5 -55t9 -73q34 -62 87 -127t81 -93.5t46 -45.5q23 -21 54 -30q18 -5 32.5 -3.5t40.5 11.5q17 15 33 22t27 8t19.5 -1t12.5 -4t4 -3q15 -10 23 -17q64 -55 70 -59q28 -21 18 -54t-50 -55q-45 -24 -113.5 -14t-120.5 49q-68 46 -132.5 108.5
t-107.5 115t-84 114.5t-59 93.5t-35 65.5q-66 167 51 249q25 12 47.5 11.5t32.5 -10.5q6 -6 25.5 -31t35.5 -47z" />
    <glyph glyph-name="uniE609" unicode="&#xe609;" 
d="M353 507q18 28 -6 60q-12 15 -34.5 45.5t-36.5 49t-18 21.5q-7 7 -23 8.5t-43.5 -6t-56.5 -24.5q-113 -81 -46 -268q13 -26 35.5 -62.5t64.5 -95t88.5 -113.5t111 -113t129.5 -98q45 -24 118.5 -26t107.5 29q3 3 9 11q18 20 27 30.5t18.5 27t8.5 29.5t-12 25
q-8 5 -41 32.5l-63 52.5l-30 24q-2 2 -5 3.5t-13.5 4.5t-20.5 3t-24 -5t-26 -17q-23 -18 -47.5 -18.5t-38.5 11.5q-14 11 -40.5 35.5t-72 79t-76.5 109.5q-21 59 21 112q8 10 13 16t7 7.5t4 3.5t4.5 5t6.5 11zM309 548q3 -7 3.5 -12.5t-3 -12t-6 -10t-10.5 -12.5t-11 -12
q-12 -14 -20 -33t-10.5 -49.5t8.5 -65.5q31 -55 78 -114t72 -84.5t41 -39.5q21 -19 49 -27q16 -5 29 -3.5t36 10.5q24 20 45.5 24.5t31 1t9.5 -5.5q14 -10 20 -16q58 -49 63 -53q25 -18 16.5 -47.5t-45.5 -49.5q-40 -22 -101.5 -13t-107.5 44q-61 41 -118.5 97t-96 103.5
t-75.5 103t-52.5 83.5t-31.5 58q-59 150 46 224q22 11 42 10.5t29 -9.5q6 -6 23.5 -28t31.5 -42zM413 419v17q25 52 82 93q58 43 57 78q-2 46 -53 48q-41 -3 -55 -51l-25 13q21 64 85 63q72 -3 77 -69q4 -50 -64 -97q-53 -39 -70 -73h135v-22h-169zM787 503h-36v177h-21
l-124 -184v-16h119v-63h26v63h36v23zM720 625q0 1 1 4q1 2 1 3q3 4 3 5v-134h-88q64 98 83 122zM899 612q-22 -1 -34.5 -7t-26.5 -25v96h-28v-259h28v116q4 48 54 55q43 0 43 -54v-116h28v120q2 75 -64 74z" />
    <glyph glyph-name="uniE60A" unicode="&#xe60a;" 
d="M786 -140q3 2 4 5.5t0 5.5v3l-46 272q-2 10 1 19q1 4 4 8.5t5 6.5l2 2l202 197q1 0 1.5 1t1.5 3.5t0 5t-3 3.5t-4 1l-1 1l-282 41q-8 0 -16 5q-4 3 -6.5 7t-3.5 6l-1 3l-127 257q-2 4 -6 4l-7 -4l-127 -257q-1 -8 -10 -15q-3 -2 -8 -4t-8 -2h-3l-275 -39q-7 -2 -10 -9
q-1 -4 0 -6.5t2 -4.5l2 -1l196 -191q10 -11 12 -19l1 -19l-47 -269q-3 -13 3 -16q2 -1 5.5 -1t6.5 0.5t3 1t249 130.5q10 5 14 5q3 0 6.5 -1t4.5 -2l2 -2l249 -131l12 -2q1 0 2 1zM708 -40q-2 -1 -4.5 -0.5t-3.5 1.5l-2 1l-175 98q-7 5 -13 5q-3 0 -6.5 -1t-5.5 -2l-2 -2
l-174 -97q0 -1 -1 -1.5t-4 -1.5t-5 1q-2 1 -2.5 3.5t-0.5 4.5l1 2l30 202q1 11 -1 19q-1 3 -3.5 7t-4.5 6l-2 2l-138 135l-1 1q-2 1 -3.5 4t-0.5 6t3.5 4.5t4.5 1.5h1l179 24q16 0 26 9q5 3 8.5 8t4.5 9l2 3l88 165q2 6 8 6q5 0 7 -7l88 -165q6 -14 17 -21q4 -2 10 -4l9 -3
h3l185 -26q5 0 7 -3q1 -2 0.5 -3.5t-1.5 -2.5l-2 -2l-143 -140q-8 -8 -10 -14l-1 -20l30 -202q1 -7 -2 -10z" />
    <glyph glyph-name="uniE60B" unicode="&#xe60b;" 
d="M786 -140q3 2 4 5.5t0 5.5v3l-46 272q-2 10 1 19q1 4 4 8.5t5 6.5l2 2l202 197q1 0 1.5 1t1.5 3.5t0 5t-3 3.5t-4 1l-1 1l-282 41q-8 0 -16 5q-4 3 -6.5 7t-3.5 6l-1 3l-127 257q-2 4 -6 4l-7 -4l-127 -257q-1 -8 -10 -15q-3 -2 -8 -4t-8 -2h-3l-275 -39q-7 -2 -10 -9
q-1 -4 0 -6.5t2 -4.5l2 -1l196 -191q10 -11 12 -19l1 -19l-47 -269q-3 -13 3 -16q2 -1 5.5 -1t6.5 0.5t3 1t249 130.5q10 5 14 5q3 0 6.5 -1t4.5 -2l2 -2l249 -131q1 -1 2.5 -1.5t6 -1t5.5 1.5z" />
    <glyph glyph-name="uniE60C" unicode="&#xe60c;" 
d="M592 136h-160q-30 3 -54 26q-6 5 -10.5 13t-5.5 12l-1 5l-2 4q-1 2 -2.5 8t1.5 10q3 6 7 8.5t7 1.5h3h274q11 3 17 -10q2 -5 1.5 -10t-2.5 -8l-2 -4q-4 -18 -17 -31q-11 -10 -24.5 -16.5t-21.5 -7.5zM356 256q-17 -1 -26 3q-9 3 -23 10q-5 3 -12 5t-12 2l-5 1l-133 27
q-15 -1 -18 15q0 5 0.5 9.5t1.5 7.5l1 2l35 43q10 17 22 23q5 3 13.5 4.5t13.5 1.5l6 -1h584q21 2 33 -5q6 -2 11.5 -8t7.5 -11l3 -4l35 -43q0 -1 1 -2.5t1.5 -6.5t0.5 -10q-1 -7 -5.5 -11t-8.5 -4h-4l-133 -27q-19 -2 -29 -8q-14 -7 -23 -10q-4 -2 -10.5 -2.5t-10.5 -0.5
h-5h-312zM235 441q-5 -2 -12 8q-3 5 -1.5 9.5t4.5 8.5l2 3l51 69q9 14 24 22q10 6 56.5 10t78.5 4h74h74q32 0 78.5 -4t56.5 -10q7 -4 13 -9t8 -9l3 -4l51 -69q1 -1 2.5 -3t4 -8.5t-1.5 -9.5q-3 -5 -6 -6.5t-5 -1.5h-1h-554zM416 606q-108 0 -128 -12q-6 -4 -10 -7.5
t-5 -4.5l-1 -2l-61 -83q-7 -10 -13 -12q-3 -3 -26.5 -6t-43.5 -5t-21 -2q-12 -3 -19 -9q-4 -3 -5.5 -8t-0.5 -8v-4q4 -17 25 -27q5 -3 12 -5t12 -2h4q8 1 10 -1q1 -1 -0.5 -4t-3.5 -5l-2 -2l-36 -43q-27 -34 -34 -59q-3 -9 -4.5 -21t-1.5 -19l-1 -7v-203q0 -51 13 -63
q16 -13 62 -13h105q14 -1 24 10q5 4 8 18.5t12 20.5l15 3h422q11 -1 15 -3q9 -6 12 -20.5t8 -18.5q4 -5 10 -7.5t10 -2.5h4h105q46 0 62 13q6 5 9 21t3 29l1 13v203q0 26 -7 47q-3 11 -11.5 26t-15.5 24l-7 9l-36 43l-6 11l10 1q16 0 28 7q9 4 15.5 11t7.5 12l2 4
q3 13 -6 20q-3 3 -8 5t-8 3l-3 1q-83 8 -91 13q-3 1 -6 4t-5 6l-2 2l-61 83q-2 6 -16 14q-20 12 -128 12l-96 1q-81 -1 -96 -1zM294 53q-18 -1 -31 -8q-11 -6 -14 -20t-6 -18q-2 -2 -7 -3t-10 -1h-4h-75q-35 -2 -46 7q-7 6 -7 44v46q-2 14 11 27q4 4 8 6.5t7.5 3t6 1
t4.5 -0.5h1l116 -6q86 -2 102 -7q38 -13 41 -15q6 -3 35 -4v-1h172v1q28 1 35 4q3 2 41 15q7 2 32.5 4t47.5 2l22 1l116 6q13 3 27 -10q6 -5 8.5 -12t2.5 -11v-4v-46q0 -38 -7 -44q-11 -9 -46 -7h-75q-17 -1 -21 4q-3 4 -6 18t-14 20q-6 3 -13.5 5t-12.5 3h-5h-436zM179 449
q2 -3 -2 -6l-3 -2q-4 -2 -7.5 -5t-4.5 -3l-13 -1h-14q-10 0 -15 2q-1 1 -3 1q-10 5 -5 9q9 7 57 7q6 1 10 -2zM106 182l-8 18v35q-2 18 6 30q2 4 8 5.5t11 1.5h5l148 -27q18 -3 27 -10q8 -7 20 -33t7 -33q-3 -4 -14.5 -5.5t-21.5 -1.5l-10 1l-163 8q-9 3 -15 11zM845 449
q2 1 4.5 2t3.5 1l2 -1q50 -1 57 -7q5 -4 -5 -9q-2 0 -3 -1l-15 -2h-14q-9 -1 -13 1q-1 0 -4.5 3t-7.5 5l-3 2l-3 4zM918 182q-3 -3 -6.5 -6t-6.5 -4l-2 -1l-163 -8q-39 -4 -46 6q-5 7 7 33t20 33q4 3 10.5 5.5t11.5 3.5l4 1l149 27q19 2 24 -7q3 -5 4.5 -12.5t1.5 -12.5v-5
v-35q-3 -9 -8 -18z" />
    <glyph glyph-name="uniE60D" unicode="&#xe60d;" 
d="M522 175l-6 2h-117q-27 3 -49 23q-6 6 -9.5 12.5t-5.5 10.5l-1 4q-1 2 -1.5 3.5t-2 7t1.5 9.5q2 5 6 7.5t6 1.5h3h187q6 0 9 2q2 1 4 7q3 6 6 11t1 8q-1 1 -3 1.5t-3 0.5h-2h-216q-16 -1 -24 2q-12 5 -21 9q-4 3 -10.5 4.5t-10.5 2.5l-5 1l-121 24q-14 -1 -16 14
q0 4 0.5 8.5t1.5 6.5l1 2l31 39q9 15 20 21q5 2 12.5 3t12.5 1h5h530q19 1 31 -4q4 -3 10 -9q5 -5 11 -6l20 -2q6 -1 7 1l-1 4l-4 5l-5 11q1 0 3 0.5t4 -0.5h2q14 1 25 6q8 5 14 11t7 10l2 5q2 11 -6 17q-3 3 -7 5t-7 2l-3 1q-75 8 -83 12q-2 1 -5 4l-5 5l-1 2l-56 76
q-2 5 -14 12q-19 11 -116 11l-88 1q-73 -1 -87 -1q-98 0 -116 -11q-6 -3 -9.5 -6t-4.5 -5l-1 -1l-55 -76q-6 -8 -11 -11q-4 -2 -24.5 -5t-39.5 -5l-19 -2q-11 -2 -17 -8q-4 -3 -5.5 -7t-0.5 -7v-3q4 -16 23 -26q5 -2 11 -4l10 -2h4q7 2 9 0q1 -1 0 -4t-3 -5l-2 -2l-33 -38
q-25 -31 -32 -54q-2 -9 -3.5 -19.5t-1.5 -17.5l-1 -6v-184q0 -46 12 -56q14 -13 57 -12h95q13 -1 23 9q3 4 6 16.5t11 17.5l14 3h247q8 -1 11 3q1 2 -1 7t-2 8q-3 7 -5 9l-11 1h-246q-16 0 -28 -7q-9 -5 -12 -17.5t-6 -16.5q-2 -2 -6.5 -3t-8.5 0h-4h-68q-32 -2 -41 6
q-3 3 -4.5 13t-2.5 18v9v42q-2 13 10 24q6 6 12 8t9 2l4 -1l105 -5q78 -2 92 -7q35 -11 38 -13q5 -3 32 -4v-1h120q7 -1 8.5 1.5t1.5 8.5v4v7q0 5 -2 7zM220 454q-4 -2 -11 7q-2 4 -1 8.5t3 7.5l3 3l46 63q8 13 21 20q9 5 51.5 8.5t71.5 4.5h134q29 -1 71.5 -4.5t51.5 -8.5
q6 -3 11.5 -8t7.5 -9l3 -3l46 -63q1 -1 2.5 -3t3.5 -7.5t-2 -8.5q-2 -4 -5 -6t-4 -1h-2h-502zM169 460q2 -2 -2 -5l-3 -1l-6 -4t-4 -2l-12 -1h-13q-8 -1 -14 2q-1 0 -4 1q-6 3 -3 6q8 7 52 7q6 1 9 -3zM102 219l-8 16v32q-1 15 6 27q2 3 7.5 4.5t10.5 1.5h5l135 -25
q16 -2 24 -9q7 -6 18 -29.5t6 -30.5q-3 -3 -13.5 -4.5t-19.5 -1.5l-9 1l-148 7l-11 6q-2 2 -3 5zM774 460l9 3q45 -1 52 -7q3 -3 -4 -6q-2 -1 -4 -1l-13 -2h-13q-9 -1 -12 1q-1 0 -4 2l-6 4l-3 1l-3 4zM554 176q0 -85 59.5 -144.5t144 -59.5t144.5 59.5t60 144.5t-60 144.5
t-144.5 59.5t-144 -59.5t-59.5 -144.5zM583 176q0 72 51 123t123.5 51t123.5 -51t51 -123t-51 -123t-123.5 -51t-123.5 51t-51 123zM749 321h16q5 0 5 -5v-162q0 -5 -5 -5h-16q-5 0 -5 5v162q0 5 5 5zM903 183v-16q0 -5 -6 -5h-162q-5 0 -5 5v16q0 5 5 5h163q5 0 5 -5z" />
    <glyph glyph-name="uniE60E" unicode="&#xe60e;" 
d="M360 -152v1q7 -6 15 -6q12 0 21 7.5t9 19.5q0 17 -12 26l-127 156q-72 87 -65 148q3 32 25 31q8 0 17 -5q17 -12 27.5 -2.5t15 19.5t4.5 13v381q1 11 7 17q16 19 34 20t27.5 -6.5t16.5 -17.5q2 -3 3 -6.5t1 -5.5v-2v-328v-6q0 -11 9 -19t21 -8q10 0 18.5 7t10.5 17v45
q0 10 4 17q14 19 33.5 20.5t33 -8.5t16.5 -22l2 -11v-38q1 -3 2 -8t8 -12.5t19 -8.5q15 -1 23.5 6.5t8.5 19.5v31q0 18 6 26q10 14 25 16t27.5 -4t19.5 -17q5 -5 7 -16t2 -18v-8v-7q0 -30 30 -31q13 0 20.5 7.5t9.5 14.5l1 8l2 10q1 9 5 13q13 13 26 15.5t20.5 -1
t18.5 -12.5q8 -6 12 -15t4 -15v-6v-221q1 -26 -10 -52q-11 -24 -43 -58l-64 -61q-19 -18 -19 -29q-1 -13 7 -21.5t21 -8.5q14 0 27 14l85 85q28 23 42 58q13 33 13 124v162q0 6 -0.5 15t-7 29.5t-19.5 31.5q-21 19 -42 28t-35 9.5t-30 -5t-21 -9t-15 -9.5q-4 -3 -7 2
q-19 26 -41.5 37.5t-43 8t-33 -8.5t-23.5 -13q-5 -3 -10 2q-18 22 -42 28.5t-38.5 3.5t-27.5 -10q-2 -1 -3.5 0.5t-2.5 3.5l-1 2v224q-3 26 -15 40q-30 32 -61.5 41.5t-56 -1t-41 -23t-25.5 -25.5q-5 -6 -7 -14t-3 -13v-5v-347q0 -1 0.5 -4.5t-2 -7t-8.5 -1.5
q-17 6 -37.5 -2.5t-34.5 -39.5q-8 -23 -8.5 -48t5 -46.5t13.5 -41.5t17.5 -35.5t18 -27t13.5 -17.5l6 -7z" />
    <glyph glyph-name="uniE60F" unicode="&#xe60f;" 
d="M68 388l-3 -5v-538q0 -3 2 -5l5 -2h689q11 2 13 3q28 14 48.5 34.5t30.5 37.5t16 37.5t6.5 29t1.5 18.5q0 3 2 4q29 27 42.5 58.5t10 59t-8.5 44t-11 28.5q-2 3 1 6q29 29 39.5 60.5t4.5 55.5t-20 45.5t-27.5 33.5t-24.5 18q-8 6 -17.5 8.5t-14.5 2.5h-6h-158
q-1 1 -2 1.5t-3 2.5t-2 5q5 76 -2 133.5t-21 89.5t-34 52.5t-40 26t-40 4.5t-33.5 -5t-21.5 -9q-4 -3 -4 -9q0 -60 -11 -110t-27 -82t-38 -58t-40.5 -39t-38.5 -22t-27 -10.5t-11 -2.5h-221q-2 0 -4 -2zM297 326q46 13 95 40q60 32 108 118t49 180q0 2 1.5 4.5t4.5 2.5
q9 -3 17.5 -10t20 -22.5t18 -46t6.5 -72.5v-97q0 -3 0.5 -7.5t4 -15.5t9.5 -19.5t19.5 -15.5t31.5 -7h180q6 -1 8 -3q9 -6 18 -17.5t15.5 -31t-7 -47t-47.5 -55.5q-1 -1 -1 -3.5t1 -3.5q16 -19 23 -50.5t-5 -65t-46 -49.5q-4 -2 -4 -8q1 -59 -13 -82t-57 -39h-448q-4 0 -5 2
l-2 5v411q1 4 5 5zM132 323l5 2h84q3 0 5 -2l1 -4v-409q0 -3 -1 -5l-5 -2h-84q-3 0 -5 2l-2 5v409q0 2 2 4z" />
    <glyph glyph-name="uniE610" unicode="&#xe610;" 
d="M122 706q-25 0 -42.5 -17.5t-17.5 -42.5v-599q0 -25 17.5 -42.5t42.5 -17.5h780q24 0 42 17.5t18 42.5v599q0 25 -18 42.5t-42 17.5h-780zM122 646h780v-519h-780v519zM362 -10h300l50 -120h-400z" />
    <glyph glyph-name="uniE611" unicode="&#xe611;" 
d="M318 738q-26 0 -45 -19t-19 -46v-770q0 -27 19 -46t45 -19h388q26 0 45 19t19 46v770q0 27 -19 46t-45 19h-388zM286 641h452v-674h-452v674zM480 -97.5q0 13.5 9.5 23t22.5 9.5t22.5 -9.5t9.5 -23t-9.5 -22.5t-22.5 -9t-22.5 9t-9.5 22.5z" />
    <glyph glyph-name="uniE612" unicode="&#xe612;" 
d="M62 288q0 -91 36 -174.5t96 -143.5t143.5 -96t174.5 -36t174.5 36t143.5 96t96 143.5t36 174.5t-36 174.5t-96 143.5t-143.5 96t-174.5 36t-174.5 -36t-143.5 -96t-96 -143.5t-36 -174.5zM128 288q0 104 51.5 192.5t140 140t192.5 51.5t192.5 -51.5t140 -140t51.5 -192.5
t-51.5 -192.5t-140 -140t-192.5 -51.5t-192.5 51.5t-140 140t-51.5 192.5zM499 606h26q5 0 8 -3t3 -8v-356q0 -5 -3 -8t-8 -3h-26q-5 0 -8 3t-3 8v357q0 4 3 7t8 3zM830 301v-26q0 -5 -3 -8t-8 -3h-356q-5 0 -8 3t-3 8v26q0 5 3 8t8 3h357q4 0 7 -3t3 -8z" />
    <glyph glyph-name="uniE613" unicode="&#xe613;" 
d="M171 396q0 -65 29 -133q8 -20 54 -97q88 -147 239 -317q19 -22 38 0q151 170 239 317q46 77 54 97q29 68 29 133q0 93 -45.5 171.5t-124 124.5t-171.5 46t-171.5 -46t-124 -124.5t-45.5 -171.5zM247 384q0 129 75 200.5t190 71.5t190 -71.5t75 -200.5q0 -42 -29.5 -106
t-73.5 -127.5t-80.5 -111.5t-64.5 -79q-17 -19 -34 0q-28 31 -64.5 79t-80.5 111.5t-73.5 127.5t-29.5 106zM361 396q0 -63 44 -107.5t107 -44.5t107 44.5t44 107.5t-44 107.5t-107 44.5t-107 -44.5t-44 -107.5zM436 396.5q0 31.5 22.5 53.5t53.5 22t53.5 -22t22.5 -53.5
t-22.5 -54t-53.5 -22.5t-53.5 22.5t-22.5 54z" />
    <glyph glyph-name="uniE614" unicode="&#xe614;" 
d="M217 417q-2 -2 -3 -5t-2 -5v-2v-84q1 -10 6 -15q3 -2 6 -3t4 -1h2h84q8 0 13 4q2 2 3.5 5.5t1.5 5.5v2v86q-1 7 -5 11q-2 2 -5 3.5t-6 2.5h-2h-84q-8 0 -13 -5zM457 416l-5 -12v-84q1 -10 5 -13l13 -5h84q9 0 13 5q2 2 3 5.5t2 5.5v2v84q-1 8 -6 12l-12 6h-84
q-9 -2 -13 -6zM698 416l-6 -11v-85q2 -10 5 -13l13 -5h84q9 1 13 5q2 2 3 5.5t1 5.5l1 2v85q-2 8 -6 12l-13 5h-83q-7 0 -12 -6zM182 662q-49 0 -84.5 -35t-35.5 -85v-360q0 -50 35.5 -85t84.5 -35h101q8 0 14 -6q2 -2 3.5 -5t1.5 -5v-2v-102q3 -21 14 -26q7 -3 13.5 -2
t11.5 3l4 2l150 129q9 8 16 11q3 2 8 2.5t9 0.5h4h310q49 0 84.5 35t35.5 85v360q0 50 -35.5 85t-84.5 35h-660zM212 602h600q49 0 69.5 -20t20.5 -70v-300q0 -50 -20.5 -70t-69.5 -20h-297q-9 0 -17 -3l-15 -9l-90 -80q-1 -1 -3 -2.5t-8 -4.5t-11 1q-5 2 -7 6.5t-2 7.5v3
v55q1 13 -5 19q-3 3 -7 5t-7 2h-3h-128q-49 0 -69.5 20t-20.5 70v300q0 50 20.5 70t69.5 20z" />
    <glyph glyph-name="uniE615" unicode="&#xe615;" 
d="M175 624q-47 0 -80 -32.5t-33 -79.5v-448q0 -47 33 -79.5t80 -32.5h674q47 0 80 32.5t33 79.5v448q0 47 -33 79.5t-80 32.5h-674zM203 568h618q47 0 65.5 -18.5t18.5 -65.5v-392q0 -47 -18.5 -65.5t-65.5 -18.5h-618q-47 0 -65.5 18.5t-18.5 65.5v392q0 47 18.5 65.5
t65.5 18.5zM342 100l344 172l8 4q5 5 5 12t-5 12l-8 4l-344 172q-6 3 -8 3q-9 0 -9 -16v-353q0 -12 9 -13q2 0 8 3zM381 389l208 -101l-208 -101v202z" />
    <glyph glyph-name="uniE616" unicode="&#xe616;" 
d="M217 680h350q4 0 7.5 -3.5t3.5 -8.5v-187h-373v187q0 5 3.5 8.5t8.5 3.5zM578 -97h-373v518h373v-518zM201 738q-22 0 -38 -16t-16 -38v-781h-67q-12 0 -12 -13v-31q-1 -12 5 -17q3 -3 6 -3.5t5 0.5h1h615q7 0 13 5q2 3 3 7t1 6v3v30q0 5 -3.5 9t-9.5 4h-64v337q0 7 5 18
q1 3 3 5.5t4 4.5l2 2q1 1 2 1l1 1q26 7 41.5 1.5t22 -21t8.5 -31.5t0 -29l-1 -12q-6 -47 -6.5 -86t2.5 -61.5t11 -42t12 -25.5t11 -15q7 -8 26 -17.5t43.5 -16t51.5 0t44 27.5q15 19 22 34t10 27.5t-1.5 33.5t-9.5 37t-17.5 54.5t-22.5 71.5q-45 156 -25 224l1 3q6 18 0 40
t-15 35l-9 13q-109 120 -139 146q-27 21 -28 0l50 -101q-10 -4 -14.5 -13t-4.5 -17l1 -8q-1 -32 10 -54t28 -30.5t33.5 -12t28.5 -1.5l12 1q-3 -23 -3 -47.5t2.5 -49t6 -48t9 -47.5t10.5 -43.5t12 -42t11 -36t10 -30.5t8 -23q14 -43 -8 -71t-63 -26q-16 0 -27 8t-15.5 17
t-7.5 21.5t-3 16.5v8l4 183q-2 41 -16 66t-33 31.5t-37 7.5t-31 -3l-12 -4q-2 -1 -7 3q-2 1 -3 3.5t0 4.5v2v356q0 22 -16 38t-38 16h-385zM768 503.5q0 11.5 8 20t19.5 8.5t20 -8.5t8.5 -20t-8.5 -19.5t-20 -8t-19.5 8t-8 19.5z" />
    <glyph glyph-name="uniE617" unicode="&#xe617;" 
d="M298 666q-20 0 -33.5 -13.5t-13.5 -33.5v-733q0 -20 13.5 -34t33.5 -14h428q20 0 33.5 14t13.5 34v733q0 20 -13.5 33.5t-33.5 13.5h-98v48q0 10 -7 17t-17 7h-184q-10 0 -17 -7t-7 -17v-48h-98zM578 615q4 -3 7 -4t4 -1h2h103q9 0 16 -7t7 -16v-669q0 -10 -7 -16.5
t-16 -6.5h-364q-9 0 -16 6.5t-7 16.5v669q0 9 7 16t16 7h102q8 -1 15 5q3 3 4 6.5t1 5.5v3v35q0 10 7 17t17 7h72q10 0 17 -7t7 -17v-36q-3 -3 3 -11zM558 455l-139 -195h85l-37 -142l139 196h-84z" />
    <glyph glyph-name="uniE618" unicode="&#xe618;" 
d="M196 654q-6 0 -10.5 -4.5t-4.5 -9.5v-14q0 -6 4.5 -10t9.5 -4h634q5 0 9.5 4t4.5 10v14q0 5 -4.5 9.5t-9.5 4.5h-191v42q0 17 -12 29.5t-30 12.5h-168q-18 0 -30 -12.5t-12 -30.5v-41h-190zM596 654h-168v14q0 11 8 19.5t20 8.5h112q12 0 20 -8.5t8 -19.5v-14zM216 590
l71 -709q0 -18 12.5 -30.5t29.5 -12.5h366q17 0 29.5 12.5t12.5 30.5l71 709q-16 12 -26 12t-16 -6l-5 -6l-66 -682q0 -11 -8.5 -19.5t-19.5 -8.5h-310q-11 0 -19.5 8.5t-8.5 19.5l-66 682l-7 7q-4 4 -16 4.5t-24 -11.5zM504 562q-6 0 -10 -4t-4 -10v-604q0 -5 4 -9.5
t10 -4.5h14q6 0 10 4.5t4 9.5v604q0 6 -4 10t-10 4h-14zM660 562q-6 0 -10 -4t-4 -10l-57 -604q0 -5 4.5 -9.5t9.5 -4.5h15q5 0 9.5 4.5t4.5 9.5l56 604q0 6 -4 10t-10 4h-14zM350 562q-6 0 -10 -4t-4 -10l56 -604q0 -5 4.5 -9.5t9.5 -4.5h15q5 0 9.5 4.5t4.5 9.5l-57 604
q0 6 -4 10t-10 4h-14z" />
    <glyph glyph-name="uniE619" unicode="&#xe619;" 
d="M171 671q-45 0 -77 -32t-32 -78v-546q0 -46 32 -78t77 -32h682q45 0 77 32t32 78v273h-55v-246q0 -45 -18 -63.5t-64 -18.5h-626q-46 0 -64 18.5t-18 63.5v492q0 45 18 63.5t64 18.5h408v55h-436zM453 256l98 -98h-98v98zM786 589l96 -97l-308 -309l-96 97zM865 671
l96 -97l-57 -58l-97 97z" />
    <glyph glyph-name="uniE61A" unicode="&#xe61a;" 
d="M168 122q92 -92 220.5 -104.5t232.5 57.5q17 12 36 9q7 0 15 -3t12 -6l5 -3l230 -230q9 -9 19 0l20 20q9 10 0 19l-230 230q-11 16 -12 32q-3 19 9 36q70 104 57.5 232.5t-104.5 220.5q-52 52 -119.5 79t-135.5 27t-135.5 -27t-119.5 -79t-79 -119.5t-27 -135.5
t27 -135.5t79 -119.5zM207.5 161.5q-89.5 89.5 -89.5 216t89.5 216t216 89.5t216 -89.5t89.5 -216t-89.5 -216t-216 -89.5t-216 89.5z" />
    <glyph glyph-name="uniE61B" unicode="&#xe61b;" 
d="M69 286q-7 -6 -7 -14.5t7 -15.5l289 -288q6 -6 15 -6t15 6l567 566q7 6 7 14.5t-7 15.5l-44 44q-7 6 -15.5 6t-14.5 -6l-494 -492q-8 -8 -16 -8q-4 0 -9 3l-7 5l-3 3l-211 210q-6 6 -14.5 6t-14.5 -6z" />
    <glyph glyph-name="uniE61C" unicode="&#xe61c;" 
d="M899.5 738q-2.5 0 -4.5 -1.5t-3 -2.5l-1 -1l-357 -366l-3 -3q-2 -2 -8 -5t-11 -2.5t-10.5 3t-8.5 5.5l-3 2l-359 366q-3 5 -9 5l-8 -5l-48 -48q-4 -5 -4 -9l4 -8l366 -358l3 -3q2 -2 4.5 -8t2.5 -11t-2.5 -10.5t-5.5 -8.5l-2 -3l-366 -358l-4 -8l4 -9l48 -49q5 -4 9 -4
l8 4l359 367q10 10 22 10q5 0 10.5 -2.5t8.5 -4.5l3 -3l357 -367l8 -4l9 4l49 49q5 3 5 8q0 3 -1.5 5t-2.5 3l-1 1l-367 358q-10 10 -10 22q-1 5 2 10.5t5 8.5l3 3l367 358q5 3 5 9l-5 8l-49 48q0 1 -1 1.5t-3 2t-4.5 1.5z" />
    <glyph glyph-name="uniE61D" unicode="&#xe61d;" 
d="M619 673q-6 60 -55 65q-75 -8 -81 -89q3 -63 60 -66q67 7 76 90zM579 373q1 8 3 19q8 40 8 59q-1 43 -38 44q-26 -2 -115 -47q-3 -2 -5 -3q-27 -15 -27 -33q0 -20 29 -26q33 1 39 -39q0 -29 -11 -96q-3 -14 -4 -24l-37 -220q0 -1 -2 -9q-11 -71 -10 -107q0 -52 41 -53
q123 24 140 73q-1 23 -34 26q-45 2 -43 35q1 32 22 138l18 115z" />
    <glyph glyph-name="uniE61E" unicode="&#xe61e;" 
d="M563 -78q-11 49 -56 47q-66 -15 -61 -85q10 -49 59 -45q62 14 58 83zM573 603q8 73 5 92q-8 47 -63 42q-73 -7 -61 -121l18 -310l9 -187l1 -38q4 -25 29 -22t26 62q1 2 1 4l34 463q0 6 1 15z" />
    <glyph glyph-name="uniE61F" unicode="&#xe61f;" 
d="M560 70q1 55 8 81q8 29 24.5 51.5t69.5 69.5q79 70 106 118.5t27 106.5q0 100 -77 170.5t-206 70.5q-122 0 -196 -66q-68 -59 -86 -167q-3 -14 5 -25q13 -18 39.5 -23.5t51.5 11.5q13 11 16 27q17 73 56 111q47 43 116 43q71 0 120.5 -48t49.5 -111q0 -35 -17 -64.5
t-73.5 -79.5t-77.5 -76q-30 -35 -43 -70q-18 -46 -18 -110v-20q0 -3 4 -11t8 -11q16 -15 39 -14q27 0 44 14q9 8 10 22zM443 -94q0 -28 19.5 -48t47.5 -20t47.5 20t19.5 48t-19.5 47.5t-47.5 19.5t-47.5 -19.5t-19.5 -47.5z" />
    <glyph glyph-name="uniE620" unicode="&#xe620;" 
d="M82 328h860q8 0 14 -6t6 -14v-40q0 -8 -6 -14t-14 -6h-860q-8 0 -14 6t-6 14v40q0 8 6 14t14 6zM472 -142v860q0 8 6 14t14 6h40q8 0 14 -6t6 -14v-860q0 -8 -6 -14t-14 -6h-40q-8 0 -14 6t-6 14z" />
    <glyph glyph-name="uniE621" unicode="&#xe621;" 
d="M324 -150q2 0 4.5 1.5t3.5 2.5l1 1l410 427q10 10 10 18q0 3 -2.5 7.5t-5.5 7.5l-2 3l-411 428l-7 4l-9 -4l-40 -38l-1 -1t-2 -3t-1 -4l4 -8l358 -370q10 -10 10 -22q0 -5 -2.5 -10.5t-4.5 -8.5l-3 -3l-358 -370l-2 -2l-1.5 -2.5t-1.5 -4.5t1.5 -4t2.5 -3h1l40 -37
q3 -5 8 -5z" />
    <glyph glyph-name="uniE622" unicode="&#xe622;" 
d="M62 706h361v-95h-88l130 -354h94l227 449h176v-96h-93l-356 -716h-81l-275 716h-95v96z" />
    <glyph glyph-name="uniE623" unicode="&#xe623;" 
d="M62 622v-668h33v34h34v-34h33v34h34v-34h33v34h33v-34h34v34h33v-34h33v33h33v-33h33v34h34v-34h33v34h33v-34h34v34h33v-34h34v34h33v-34h33v33h34v-33h33v34h33v-34h33v34h34v-34h33v34h33v-34h34v668h-900zM928 22h-832v566h832v-566zM863 538h-702q-13 0 -22.5 -9.5
t-9.5 -22.5v-403q0 -13 9.5 -22t22.5 -9h702q13 0 22.5 9t9.5 22v403q0 13 -9.5 22.5t-22.5 9.5zM878 117q0 -12 -8.5 -20.5t-21.5 -8.5h-672q-13 0 -21.5 8.5t-8.5 20.5v376q0 12 8.5 20.5t21.5 8.5h672q13 0 21.5 -8.5t8.5 -20.5v-376zM247 377h64q8 32 13 70l26 -4
q-6 -34 -13 -66h168v-22h-174q-5 -20 -12 -39h151v-21q-20 -50 -63 -86q43 -25 100 -36q-14 -15 -21 -25q-49 16 -98 47q-40 -26 -113 -50q-9 13 -18 23q74 19 111 41q-40 34 -57 86q-33 -83 -90 -137q-8 12 -16 21q68 62 100 176h-84v23q13 29 23 58l25 -7q-11 -27 -22 -52
zM443 295h-110q14 -42 55 -72q39 32 55 72zM396 426l14 17q29 -19 57 -39l-17 -20q-26 22 -54 42zM601 220l17 -18q-44 -27 -89 -51q-5 9 -13 21q49 23 85 48zM521 246h295v-19h-133v-40q0 -36 -36 -36h-40q-1 10 -4 24q23 -2 37 -2q20 0 20 19v35h-139v19zM543 385h76v28
h-92v19h283v-19h-93v-28h76v-85h-21v10h-208v-10h-21v85zM543 287h251v-18h-251v18zM564 328h55v39h-55v-39zM640 385h55v28h-55v-28zM640 328h55v39h-55v-39zM711 200l13 19q43 -21 90 -46l-14 -22q-48 28 -89 49zM772 367h-55v-39h55v39z" />
    <glyph glyph-name="uniE624" unicode="&#xe624;" 
d="M164 202q13 -147 156 -167q64 -9 125 6q-1 3 -2 7.5t-6 19t-12 26.5t-19 30.5t-27.5 31t-36.5 27t-47 19.5t-59 8t-72 -8zM714 679q-11 -7 -36 -30.5t-32 -32.5q-7 13 -16.5 27t-27 37t-41 41.5t-49.5 28.5q-26 -10 -49.5 -28.5t-41 -41.5t-27 -37t-16.5 -27
q-7 9 -32 32.5t-36 30.5q-35 -22 -59.5 -54t-35.5 -64.5t-15 -55.5t-4 -43q5 -44 23 -82t42 -63.5t55.5 -46.5t56.5 -32.5t52.5 -20.5t37 -11t14.5 -3v-353h35h35v353q5 1 14.5 3t37 11t52.5 20.5t56.5 32.5t55.5 46.5t42 63.5t23 82q0 20 -4 43t-15 55.5t-35.5 64.5
t-59.5 54zM708 406q-15 -34 -41 -57.5t-51.5 -32.5t-49.5 -13.5t-39 -3.5h-15h-8q-5 0 -21 0.5t-31.5 3.5t-35.5 10.5t-37.5 18.5t-34.5 30t-28 44q-21 78 18 153q16 -9 39 -28t34 -37q10 19 25.5 44.5t40 55t39.5 29.5q18 0 53 -48.5t52 -80.5q11 18 34 37t39 28
q39 -75 18 -153zM579 41q6 -1 15 -3t36.5 -4.5t53 -1t57 11t55 27t42 51t22.5 80.5q-50 11 -90 6.5t-69.5 -16.5t-50.5 -32t-35 -39.5t-22 -38.5t-11 -29t-3 -12z" />
    <glyph glyph-name="uniE625" unicode="&#xe625;" 
d="M512.5 -133q-10.5 0 -18 7.5t-7.5 18.5v585q0 10 7.5 17.5t18 7.5t18 -7.5t7.5 -17.5v-585q0 -11 -7.5 -18.5t-18 -7.5zM535 472h-251l-7 8q-56 56 -51 130q4 54 36 79q24 19 61 19q35 0 72.5 -17.5t68.5 -48.5q59 -58 68 -141zM306 523h170q-13 49 -48 83
q-51 51 -105 51q-19 0 -30 -8q-14 -11 -16 -42q-3 -46 29 -84zM729 472h-251l4 29q9 83 67 141q32 31 69.5 48.5t72.5 17.5q37 0 61 -19q32 -25 36 -79q4 -74 -51 -130zM538 523h170q32 38 29 84q-2 31 -17 42q-10 8 -29 8q-54 0 -106 -51q-34 -34 -47 -83zM780 -133h-535
q-43 0 -73.5 31t-30.5 75v389h743v-389q0 -44 -30.5 -75t-73.5 -31zM192 311v-338q0 -23 15.5 -39t37.5 -16h535q22 0 37.5 16t15.5 39v338h-641zM902 311h-779q-25 0 -42.5 17.5t-17.5 41.5v94q0 24 17.5 41.5t42.5 17.5h779q25 0 42.5 -17.5t17.5 -41.5v-94
q0 -24 -17.5 -41.5t-42.5 -17.5zM123 472q-9 0 -9 -8v-94q0 -8 9 -8h779q9 0 9 8v94q0 8 -9 8h-779z" />
    <glyph glyph-name="uniE626" unicode="&#xe626;" 
d="M136 750q-8 0 -14 -6t-6 -14v-860q0 -8 6 -14t14 -6h752q8 0 14 6t6 14v860q0 8 -6 14t-14 6h-752zM185 690h654q10 0 10 -10v-128q0 -10 -10 -10h-654q-10 0 -10 10v128q0 10 10 10zM185 503h119q10 0 10 -10v-99q0 -10 -10 -10h-119q-10 0 -10 10v99q0 10 10 10z
M185 344h119q10 0 10 -9v-99q0 -10 -10 -10h-119q-10 0 -10 10v99q0 9 10 9zM185 186h119q10 0 10 -10v-98q0 -10 -10 -10h-119q-10 0 -10 10v98q0 10 10 10zM185 28h119q10 0 10 -10v-98q0 -10 -10 -10h-119q-10 0 -10 10v98q0 10 10 10zM364 503h118q10 0 10 -10v-99
q0 -10 -10 -10h-118q-10 0 -10 10v99q0 10 10 10zM364 344h118q10 0 10 -9v-99q0 -10 -10 -10h-118q-10 0 -10 10v99q0 9 10 9zM364 186h118q10 0 10 -10v-98q0 -10 -10 -10h-118q-10 0 -10 10v98q0 10 10 10zM364 28h118q10 0 10 -10v-98q0 -10 -10 -10h-118q-10 0 -10 10
v98q0 10 10 10zM542 503h118q10 0 10 -10v-99q0 -10 -10 -10h-118q-10 0 -10 10v99q0 10 10 10zM542 344h118q10 0 10 -9v-99q0 -10 -10 -10h-118q-10 0 -10 10v99q0 9 10 9zM542 186h118q10 0 10 -10v-98q0 -10 -10 -10h-118q-10 0 -10 10v98q0 10 10 10zM542 28h118
q10 0 10 -10v-98q0 -10 -10 -10h-118q-10 0 -10 10v98q0 10 10 10zM720 503h119q10 0 10 -10v-99q0 -10 -10 -10h-119q-10 0 -10 10v99q0 10 10 10zM720 344h119q10 0 10 -9v-99q0 -10 -10 -10h-119q-10 0 -10 10v99q0 9 10 9zM720 186h119q10 0 10 -10v-256q0 -10 -10 -10
h-119q-10 0 -10 10v256q0 10 10 10z" />
    <glyph glyph-name="uniE627" unicode="&#xe627;" 
d="M352 750l-185 -185h139v-715h87v138q14 43 29.5 75.5t43.5 67.5t63 58t88.5 39t119.5 19v-93l120 119l-120 119v-82q-33 -1 -62.5 -5t-52.5 -8.5t-45.5 -13.5t-37.5 -15.5t-32.5 -19.5t-27 -20.5t-24 -23.5t-21 -23.5t-21 -25.5t-20.5 -25v435h144z" />
    <glyph glyph-name="uniE628" unicode="&#xe628;" 
d="M64 399l-2 5l6 314q0 8 3 11l11 3l314 6q3 0 5 -2l1 -4l1 -30q0 -2 -1 -4l-5 -2l-259 -4l340 -340q7 -7 0 -15l-15 -15q-8 -7 -15 0l-340 340l-4 -259q0 -3 -2 -5l-5 -1l-28 1q-3 -1 -5 1zM960 177l2 -5l-6 -314q0 -8 -3 -11l-11 -3l-314 -6q-3 0 -5 2l-1 4l-1 30
q0 2 1 4l5 2l259 4l-340 340q-7 7 0 15l15 15q8 7 15 0l340 -340l4 259q0 3 2 5l5 1l28 -1q2 1 5 -1z" />
    <glyph glyph-name="uniE629" unicode="&#xe629;" 
d="M478 658l1 -5l-6 -313q0 -7 -3 -10l-10 -3l-313 -6q-3 0 -5 1l-1 5l-1 29q0 3 1 4l5 2l258 4l-338 339q-8 7 -1 15l15 15q8 7 15 -1l339 -338l4 258q0 4 2 5l4 1l29 -1q3 1 5 -1zM546 -82l-1 5l6 313q0 7 3 10l10 3l313 6q3 0 5 -1l1 -5l1 -29q0 -3 -1 -4l-5 -2l-258 -4
l338 -339q8 -7 1 -15l-15 -15q-8 -7 -15 1l-339 338l-4 -258q0 -4 -2 -5l-4 -1l-29 1q-3 -1 -5 1z" />
    <glyph glyph-name="uniE62A" unicode="&#xe62a;" 
d="M324 442q0 90 52.5 139.5t133 49.5t133.5 -50t53 -139q0 -38 -37 -104t-72.5 -113t-64.5 -79q-12 -14 -24 0q-29 32 -64.5 79t-72.5 113t-37 104zM271 450q0 -46 20 -93q6 -14 38 -67q62 -103 167 -222q14 -15 27 0q106 119 168 222q32 53 38 67q20 47 20 93
q0 99 -70 168.5t-169 69.5t-169 -69.5t-70 -168.5zM457 450q0 22 15.5 37.5t37.5 15.5t37.5 -15.5t15.5 -37.5t-15.5 -37.5t-37.5 -15.5t-37.5 15.5t-15.5 37.5zM404 450q0 -44 31 -75t75 -31t75 31t31 75t-31 75t-75 31t-75 -31t-31 -75zM807 433l-3 -11v-29q1 -6 4 -8
l10 -1l77 16q7 1 10 -1q2 -1 2.5 -3.5t0.5 -5.5v-2v-373q2 -5 -4 -12q-3 -3 -6 -5t-5 -2h-1l-200 -52q-14 -4 -28 -4q-7 -1 -14 0l-13 3l-5 2l-239 56q-29 8 -44 8q-4 0 -9.5 -1t-10.5 -2t-9.5 -2.5t-7.5 -1.5l-2 -1l-175 -48q-1 -1 -2.5 -1.5t-6 -1t-6.5 1.5q-3 2 -4 5
t-1 5v3v369q0 6 4 13q1 3 3.5 4.5t3.5 1.5h1l83 24q2 0 5 4l2 8v37l-3 6q-4 4 -7 1h-1l-32 -9l-66 -18l-33 -10q-7 -2 -9 -8l-4 -11v-474q1 -7 9 -11q3 -3 7.5 -3t6.5 1l2 1l224 58q26 7 39 7q6 0 17 -2t19 -4l8 -3l238 -55q21 -4 34 -4q14 0 33 5q242 59 241 60l2 1
q3 1 7 4t6.5 6.5t4 9.5t1.5 10l1 3v459q0 13 -4 16q-2 1 -4.5 1.5t-4.5 0.5l-2 -1l-130 -26q-8 -1 -10 -4z" />
    <glyph glyph-name="uniE62B" unicode="&#xe62b;" 
d="M402 534q-84 180 -99 194q-30 29 -122 -27q-4 -3 -17.5 -11.5t-20.5 -13.5t-18.5 -17t-17 -24.5t-10 -33t-3 -43.5t8.5 -56.5t21 -72.5q18 -34 41 -73t71 -108.5t100 -131t128 -129.5t156 -116q34 -19 82 -28t95.5 -2t69.5 33q102 114 36 149q-9 7 -47 30.5t-72 44.5
l-33 21q-1 1 -4 2.5t-12 3.5t-19.5 0.5t-26 -11t-31.5 -25.5q-46 -36 -77 -8q-180 161 -257 298q-5 11 -6.5 18.5t5.5 26t27 38.5q9 10 21 21t16 15t8.5 10.5t5.5 11.5t1 14z" />
    <glyph glyph-name="uniE62C" unicode="&#xe62c;" 
d="M131 63l146 -146h-146v146zM629 561l144 -145l-461 -462l-144 145zM747 683l144 -145l-86 -86l-144 144z" />
    <glyph glyph-name="uniE62D" unicode="&#xe62d;" 
d="M62 378q0 70 44.5 128.5t121.5 93t167.5 34.5t167 -34.5t121 -93t44.5 -128t-44.5 -128.5t-121 -93t-167.5 -34q-3 0 -16 1t-15 0q-19 -3 -35 -9q-4 -2 -8.5 -4t-6.5 -3t-6 -4.5t-11 -10.5q-19 -20 -41 -34q-20 -13 -49.5 -18.5t-48.5 -4.5t-26 3q-4 2 3.5 7t24 18.5
t27.5 28.5q26 39 9 66q-15 23 -28 33q-50 35 -78 83.5t-28 102.5zM496 71q27 -18 41.5 -26t40.5 -16.5t53 -8.5q14 0 28 1q5 1 11.5 2t8.5 1.5t7 -1.5q7 -1 28 -19.5t42 -25.5q41 -12 91.5 -11.5t59.5 7.5q5 3 -2 8.5t-24 16t-27 18.5q-20 17 -26.5 28t-2.5 23q9 12 18 19
q56 40 87.5 97t31.5 122q0 102 -59.5 165t-168.5 80q-17 3 -22 -6q-2 -3 1 -5q47 -34 64.5 -74.5t17.5 -106.5q0 -116 -78 -190.5t-207 -79.5q-5 0 -12.5 -7t-1.5 -11z" />
    <glyph glyph-name="uniE62E" unicode="&#xe62e;" 
d="M82 340h860q8 0 14 -6t6 -14v-40q0 -8 -6 -14t-14 -6h-860q-8 0 -14 6t-6 14v40q0 8 6 14t14 6z" />
    <glyph glyph-name="uniE62F" unicode="&#xe62f;" 
d="M142 735q-11 -5 -17.5 -14t-7.5 -15l-1 -6v-816q2 -33 23 -42q11 -4 19.5 -3.5t13.5 3.5l5 2l715 413q15 14 16 29q0 8 -3.5 15.5t-6.5 11.5l-4 3l-710 410q-3 2 -6.5 4.5t-15 6.5t-20.5 -2z" />
    <glyph glyph-name="uniE630" unicode="&#xe630;" 
d="M198 495q66 100 179.5 144t231.5 13q120 -33 196 -128.5t82 -216.5q1 -9 10 -16.5t18.5 -7.5t16.5 7.5t7 18.5q-7 137 -93.5 246.5t-222.5 145.5q-138 37 -268 -15t-204 -169q-3 -6 -10 -7t-10 2l-6 2q-6 3 -16.5 8.5t-18 9t-18.5 9.5q-3 1 -4 2t-2 0l-2 -2v-7l42 -128
q3 -15 10 -19q4 -1 8 -0.5t7 1.5l3 1l130 46q4 0 5 5l-4 5l-64 32q-5 3 -6 8q-1 4 3 10zM86 262q8 -135 94.5 -243t221.5 -144q136 -37 265.5 14.5t203.5 166.5q4 6 12 8l12 -2l58 -28q3 -5 7 0q2 2 1.5 4t-0.5 3l-1 1l-45 135q-1 8 -8 11q-3 1 -6 0.5t-5 -1.5h-3l-132 -47
q-6 0 -6 -5l4 -6l60 -30q7 -5 9 -9q1 -5 -3 -11q-66 -99 -179 -142.5t-231 -12.5q-117 32 -192.5 124.5t-85.5 209.5q-1 12 -8 23t-18 11q-10 1 -18 -9t-7 -21z" />
    <glyph glyph-name="uniE631" unicode="&#xe631;" 
d="M199 277h80v150h141v75h-141v139h-80v-139h-137v-75h137v-150zM876 471l-147 147q4 4 10.5 10t25 19.5t37 20t43 2.5t44.5 -25q21 -20 28.5 -43t6 -40.5t-11.5 -37.5t-17.5 -30t-18.5 -23zM407 -2l-49 83l421 424l70 -61zM266 -60l-71 76l39 103q4 -1 10.5 -3t25.5 -12
t36 -23.5t36 -40.5t30 -60zM700 596l61 -70l-423 -422l-83 49zM912 672q-31 26 -64 32t-58.5 -3.5t-46.5 -23t-32 -25.5l-11 -12l-503 -488l-63 -282l289 90l489 490q5 6 12 15t20 36.5t17 53t-7 58.5t-42 59z" />
    <glyph glyph-name="uniE632" unicode="&#xe632;" 
d="M95 633h835v-691h-835v691zM960 665h-898v-754h899l1 754h-2zM856 113l-173 187l-24 -22l-72 -67l-193 209l-2 3l-224 -210v347h688v-447zM166 16v154l224 208l174 -188l-57 -53l22 -23l151 141l174 -189v-50h-688zM135 591v-606h752v31v543v32h-752zM694 368q20 0 34 14
t14 34t-14 34.5t-34 14.5t-34.5 -14.5t-14.5 -34.5t14.5 -34t34.5 -14z" />
    <glyph glyph-name="uniE633" unicode="&#xe633;" 
d="M512 -131q-114 0 -211 56.5t-153.5 153.5t-56.5 211.5t56.5 211t153.5 153t211 56.5t211 -56.5t153.5 -153t56.5 -211t-56.5 -211.5t-153.5 -153.5t-211 -56.5zM512 738q-91 0 -174.5 -36t-143.5 -96t-96 -143.5t-36 -174.5t36 -174.5t96 -143.5t143.5 -96t174.5 -36
t174.5 36t143.5 96t96 143.5t36 174.5t-36 174.5t-96 143.5t-143.5 96t-174.5 36zM350 327q25 0 42.5 17.5t17.5 42t-17.5 42t-42.5 17.5t-42.5 -17.5t-17.5 -42t17.5 -42t42.5 -17.5zM654 327q25 0 42.5 17.5t17.5 42t-17.5 42t-42.5 17.5t-42.5 -17.5t-17.5 -42t17.5 -42
t42.5 -17.5zM741 195q-51 -63 -104.5 -96.5t-97.5 -37.5t-85 6t-72 31.5t-54.5 43.5t-35.5 36.5t-12 16.5q-19 -1 -28 -11t-8 -19l1 -10q61 -66 123.5 -100.5t112 -40.5t98.5 7.5t81.5 33.5t62.5 47t39 38.5t14 17.5q0 16 -8.5 25t-17.5 10z" />
    <glyph glyph-name="uniE634" unicode="&#xe634;" 
d="M810 -1q0 -17 -12.5 -29.5t-29.5 -12.5h-576q-18 0 -30.5 12.5t-12.5 29.5v534q0 17 12.5 29.5t30.5 12.5h277v64h-320q-26 0 -45 -18.5t-19 -45.5v-618q0 -27 19 -45.5t45 -18.5h661q27 0 45.5 18.5t18.5 45.5v213h-64v-171zM930 523l-173 172q-9 9 -22 9t-22.5 -9
t-9.5 -22.5t9 -22.5l99 -99q-167 3 -308 -101.5t-196 -267.5l59 -29q32 96 106 176t174 123t199 32l-132 -132q-10 -9 -10 -22.5t9.5 -22.5t22.5 -9t23 9l167 167l2 2q2 1 3 1q9 10 9 23t-9 23z" />
    <glyph glyph-name="uniE635" unicode="&#xe635;" 
d="M595 -160h353q1 20 1.5 50t-3.5 88t-14 75q-10 14 -33 28.5t-43 23t-63.5 26t-62.5 24.5q-39 16 -66 28.5t-34 16.5l-8 4l-1 84q4 3 9.5 9.5t17.5 33t16 61.5q14 -4 28 14.5t15 34.5q1 12 -0.5 27t-8.5 27.5t-19 10.5q10 69 7 92q-5 54 -53.5 96t-120.5 42t-120.5 -42
t-53.5 -96q-3 -22 7 -92q-12 3 -19 -10.5t-8.5 -28t-0.5 -26.5q1 -16 15 -34.5t28 -14.5q4 -35 15 -61t19 -34l9 -9l-1 -84q-21 -12 -108 -49q-19 -7 -62.5 -24.5t-63.5 -26t-43 -23t-33 -28.5q-10 -17 -14 -75t-3.5 -88t1.5 -50h329h190z" />
    <glyph glyph-name="uniE636" unicode="&#xe636;" 
d="M604 746q-21 29 -67 37.5t-86 3t-65 -15.5q-34 -14 -70 -51.5t-49 -83.5q-9 -32 -24 -184t-23 -171q-31 -68 -63 -99q46 -28 112 -45t129 -11q-4 -79 -51 -98q-7 -3 -42 -14t-72 -24t-77 -30.5t-68 -40.5t-33 -47q-19 -83 -9 -84h935q-1 3 -2 14.5t-1.5 13.5t-1.5 10.5
t-1.5 10.5t-2 9t-3 10t-3.5 9.5t-4.5 12.5t-5.5 13q-5 12 -26.5 26t-58.5 29t-65.5 26t-75 26.5t-60.5 21.5q-17 6 -27 35.5t-12 48t-2 26.5q39 -6 125 11.5t109 52.5q-8 5 -15.5 12t-13 13t-10.5 15t-8 14.5t-6.5 15t-4.5 13t-4 13t-3 10.5q-8 29 -18.5 165t-16.5 164
q-6 26 -14.5 45t-25.5 37.5t-47 27.5t-72 7z" />
    <glyph glyph-name="uniE637" unicode="&#xe637;" 
d="M213.5 478q-16.5 0 -28.5 -12t-12 -29t12 -28.5t28.5 -11.5t28.5 11.5t12 28.5t-12 29t-28.5 12zM513 491q-94 0 -161 -66.5t-67 -161t67 -161.5t161 -67t161 67t67 161.5t-67 161t-161 66.5zM514 57q-85 0 -145 60t-60 145.5t60 145.5t145 60t145 -60t60 -145.5
t-60 -145.5t-145 -60zM513 423q-66 0 -113 -47t-47 -113t47 -113t113 -47t113 47t47 113t-47 113t-113 47zM512.5 120q-58.5 0 -100 41.5t-41.5 100t41.5 99.5t100 41t99.5 -41t41 -99.5t-41 -100t-99.5 -41.5zM928 541h-201l-50 85v1h-326l-50 -83h-239v-595h900v592h-34z
M928 -16h-832v529h226v0l50 83h283l49 -83h1h223v-529z" />
    <glyph glyph-name="uniE638" unicode="&#xe638;" 
d="M910 435l-125 -125q-35 -35 -81.5 -47t-90.5 1l104 105q1 0 2.5 1t2.5 2l125 126q26 26 26 62.5t-26 62.5t-62.5 26t-62.5 -26l-125 -125l-109 -108q-12 43 0 89.5t46 80.5l125 126q52 52 125.5 52t125.5 -52t52 -125.5t-52 -125.5zM395 106q-14 -13 -32.5 -13t-31.5 13
t-13 32t14 32l298 298q13 14 33 14q18 0 31.5 -13t13.5 -32q0 -18 -13 -31v-1zM302 204l-125 -126q-26 -26 -26 -62.5t26 -62.5t62.5 -26t62.5 26l125 125q1 1 1.5 2t1.5 1l106 106q12 -44 0 -90.5t-46 -80.5l-125 -126q-52 -52 -125.5 -52t-125.5 52t-52 125.5t52 125.5
l125 125q35 35 81.5 47t90.5 -1l-108 -108h-1z" />
    <glyph glyph-name="uniE639" unicode="&#xe639;" 
d="M461 513h440q25 0 43 17.5t18 42.5t-18 43t-43 18h-440q-25 0 -43 -18t-18 -43t18 -42.5t43 -17.5zM901 352h-440q-25 0 -43 -17.5t-18 -42.5t18 -42.5t43 -17.5h440q25 0 43 17.5t18 42.5t-18 42.5t-43 17.5zM901 73h-440q-25 0 -43 -18t-18 -43t18 -42.5t43 -17.5h440
q25 0 43 17.5t18 42.5t-18 43t-43 18zM305 573q0 50 -35.5 85.5t-86 35.5t-86 -35.5t-35.5 -85.5q0 -46 30 -80t75 -40v-45q-45 -6 -75 -40t-30 -80t30 -80t75 -40v-45q-45 -6 -75 -40t-30 -80q0 -50 35.5 -85.5t86 -35.5t86 35.5t35.5 85.5q0 46 -30 80t-75 40v45
q45 6 75 40t30 80t-30 80t-75 40v45q45 6 75 40t30 80zM265 3q0 -34 -24 -58t-57.5 -24t-57.5 24t-24 58t24 58t57.5 24t57.5 -24t24 -58zM265 288q0 -34 -24 -58t-57.5 -24t-57.5 24t-24 58t24 58t57.5 24t57.5 -24t24 -58zM183.5 491q-33.5 0 -57.5 24t-24 58t24 58
t57.5 24t57.5 -24t24 -58t-24 -58t-57.5 -24z" />
    <glyph glyph-name="uniE63A" unicode="&#xe63a;" 
d="M495 334q3 20 3 41v22h-48q-20 0 -34 -3v37q15 -3 34 -3h48v10l-11 16h-37q-19 0 -33 -3v37q14 -3 33 -3h18l-44 70q-16 25 -23 33h55q4 -11 16 -31l47 -81l47 81q12 20 16 31h55q-12 -16 -23 -33l-44 -70h18q19 0 34 3v-37q-15 3 -34 3h-37l-11 -17v-9h47q19 0 34 3v-37
q-15 3 -34 3h-47v-22q0 -24 3 -41h-48zM529 -162q-33 0 -73 19q-18 10 -124 64h-1q-27 14 -34 18q-18 9 -28 9q-8 0 -25 -10l-57 -37q-5 -3 -10 -1.5t-7 5.5l-102 227q-5 10 5 15l10 4q103 48 148 66q37 14 67 14q19 0 37 -5.5t28.5 -11.5t29.5 -17v-1l6 -3q18 -12 75 -53
q54 -30 102 -30q67 0 88 -6q36 -11 36 -48q0 -34 -40 -48q-20 -7 -39 -7h-139q-27 0 -64 10l-48 10q-3 0 -6 2l-12 12l-34 36q-6 7 -1 14q4 5 10 5q2 0 4 -1l46 -18q64 -26 105 -26h139q12 1 23 4.5t12 6.5v4q-1 1 -3 1q-15 5 -77 5q-28 0 -60 9.5t-45 16t-20 11.5h-1h-1v1
l-3 2q-4 3 -9 6.5t-12 8.5l-14 10l-14 10q-7 5 -12.5 9t-9.5 6l-6 3q-44 28 -71 28q-22 0 -51 -11q-37 -15 -126 -55l74 -163l25 17q28 17 49 17q20 0 48 -14l9 -4q5 -3 12.5 -7t13.5 -7q104 -53 124 -63q30 -15 53 -15t59 23l15 9q22 12 140.5 90t139.5 93q28 20 30 32
q1 3 -3 8q-7 8 -20 8q-20 0 -51 -18l-21 -12q-3 -2 -6 -2q-4 0 -7 2q-6 5 -4 12l5 24q1 5 -1 7q-4 5 -14 5q-29 0 -46 -17l-9 -9q-4 -4 -9 -3.5t-8 4.5l-8 10q-12 16 -24 16q-17 0 -55 -24q-5 -3 -11.5 -7t-10.5 -7l-3 -2q-4 -2 -8 -1l-47 8q-11 2 -12 9v2q-1 2 0 2q2 0 3 1
l5 3q5 4 12.5 9t16 11t17.5 12l15 10q31 19 71 18h7q25 0 44 -17q26 16 60 16q32 0 49 -21q2 -3 4 -7q25 10 46 10q35 0 55 -25q15 -20 12 -42q-5 -30 -48 -61q-22 -15 -142 -93.5t-142 -91.5q-4 -3 -14 -8q-46 -30 -82 -30zM515 685q-89 0 -151.5 -63t-62.5 -151.5
t62.5 -151.5t151.5 -63t152 63t63 151.5t-63 151.5t-152 63zM515.5 203q-110.5 0 -189.5 78.5t-79 189t79 189t189.5 78.5t189 -78.5t78.5 -189t-78.5 -189t-189 -78.5z" />
    <glyph glyph-name="uniE63B" unicode="&#xe63b;" 
d="M81 682q-2 0 -5 -2t-8.5 -9t-5.5 -17q1 -10 5.5 -17t9.5 -9l4 -2h38q12 0 18 -4q3 -2 5 -6.5t3 -7.5l1 -3l172 -516q6 -12 12 -19q2 -2 8 -4t10 -3h4h539q12 1 16 4q2 2 3 6t1 7v3v19q0 7 -4 13q-2 2 -5.5 3t-6.5 1h-3h-498q-14 -1 -24 6q-5 2 -8.5 8t-4.5 10l-2 4
l-95 285q-1 1 -1.5 3t-1.5 8t1 8q2 3 6.5 4.5t8.5 1.5h4h595q15 2 18 -7q2 -5 1.5 -10t-1.5 -9l-1 -3l-34 -136q-4 -11 -11 -19q-4 -3 -8.5 -5t-7.5 -3h-4l-370 -32q-12 -1 -16 -5q-2 -2 -2.5 -6t-0.5 -7l-1 -3l3 -20q2 -7 7 -12q2 -2 5 -2.5t5 -0.5h2q1 0 105 9l208 18
l104 9q7 1 15 6q3 2 5 5.5t3 6.5l1 2l63 252q5 12 -2 21q-1 2 -4 3.5t-6 2.5h-4q-3 1 -5 1h-1h-27h-660q-8 0 -15 4q-3 2 -5.5 6t-3.5 7l-1 3l-31 93l-6 17q-5 16 -23 27q-8 5 -16.5 8t-13.5 4h-5h-50zM737 -31q0 -31 22 -53t53 -22t53 22t22 53t-22 53t-53 22t-53 -22
t-22 -53zM793 -31.5q0 7.5 5.5 13t13.5 5.5t13.5 -5.5t5.5 -13t-5.5 -13t-13.5 -5.5t-13.5 5.5t-5.5 13zM339 -31q0 -31 22.5 -53t53.5 -22t53 22t22 53t-22 53t-53 22t-53.5 -22t-22.5 -53zM396 -31.5q0 7.5 5.5 13t13.5 5.5t13.5 -5.5t5.5 -13t-5.5 -13t-13.5 -5.5
t-13.5 5.5t-5.5 13z" />
    <glyph glyph-name="uniE63C" unicode="&#xe63c;" 
d="M789 -71q-57 0 -97 40t-40 97t40 97t97 40t97 -40t40 -97t-40 -97t-97 -40zM98 -5v14q0 30 28.5 48.5t92.5 40.5q68 24 94 40q49 31 49 79v13v20v7l-4 5q-37 41 -49 90l-2 8l-8 4q-11 5 -18 23q-14 36 4 58l5 6l-1 7v1q-10 97 30 141q42 45 105 47q63 -2 105 -47
q40 -44 29 -140l-2 -8l6 -7q18 -22 5 -58q-7 -18 -19 -23l-8 -4l-2 -8q-11 -49 -49 -90l-4 -5v-9v-32q0 -33 49 -73l48 -31l37 -14q-3 -16 -3 -32q0 -37 16 -71h-534zM789 238q-54 0 -97.5 -29.5t-62.5 -78.5l-32 12q-18 10 -41 28q-36 30 -36 46v27q37 43 51 93
q19 13 29 39q18 49 -6 86q11 108 -39 163q-52 56 -131 58h-1q-78 -2 -130 -58q-51 -55 -40 -163q-24 -37 -5 -86q9 -26 28 -39q14 -50 51 -93v-13v-13q0 -28 -28 -46t-91 -39q-69 -24 -96 -41q-50 -32 -50 -82v-49l591 -1q25 -30 60 -47.5t76 -17.5q71 0 122 50.5t51 121.5
t-51 121.5t-122 50.5zM427 189l-28 -137l28 -31l28 31zM894 111l-125 -124q-4 -3 -8 -3t-8 3l-72 72q-12 12 3 22q13 10 25 -2l52 -52l103 104q11 11 25 0q6 -5 7.5 -11t-2.5 -9z" />
    <glyph glyph-name="uniE63D" unicode="&#xe63d;" 
d="M512 693q110 0 203 -54.5t147.5 -147.5t54.5 -203q0 -101 -48 -190q-4 -8 -3 -12q0 -3 1.5 -5.5t2.5 -2.5l2 -1l16 -9l2 -2l4 -2q3 -1 6 1q3 1 4.5 2.5t2.5 5t2 4.5q53 99 53 211q0 91 -36 174.5t-96 143.5t-143.5 96t-174.5 36t-174.5 -36t-143.5 -96t-96 -143.5
t-36 -174.5t36 -174.5t96 -143.5t143.5 -96t174.5 -36q87 0 166 32q9 4 11 9q1 4 0.5 6.5t-1.5 4.5l-1 2l-6 13q-3 7 -9 9q-4 0 -10 -2q-72 -29 -150 -29q-110 0 -203 54.5t-147.5 147.5t-54.5 203t54.5 203t147.5 147.5t203 54.5zM270 453q-8 0 -13.5 -6t-5.5 -14v-19
q0 -8 5.5 -13.5t13.5 -5.5h311l-255 -260q-6 -5 -6 -13t5 -13l13 -13q6 -5 13.5 -5t13.5 5l240 244v-316q0 -8 5.5 -14t13.5 -6h20q8 0 13.5 6t5.5 14v371h84q8 0 14 5.5t6 13.5v20q0 8 -6 13.5t-14 5.5h-84v93q0 8 -5.5 13.5t-13.5 5.5h-20q-8 0 -13.5 -5.5t-5.5 -13.5v-93
h-335z" />
    <glyph glyph-name="uniE63E" unicode="&#xe63e;" 
d="M269 245q-5 5 -12 5q-8 0 -13 -5l-1 -1l-11 -12l-113 -112q-6 -6 -6 -14t5 -13l12 -13q6 -5 13.5 -4.5t13.5 6.5l78 78v-108q-1 -39 27 -86q17 -26 36 -42t31 -22l24 -10q26 -10 39 -13l40 -11q15 0 20 15q2 6 -0.5 12t-6.5 9l-3 2q-24 6 -38 10l-30 9q-7 3 -15 8
q-14 7 -17 9q-28 19 -41 43q-12 15 -17 31t-5 25v9v110l78 -78q5 -6 13 -6.5t13 4.5l13 13q5 5 4.5 13t-6.5 14zM756 332q5 -5 13 -5q7 0 12 5l1 1l12 11l112 113q6 6 6.5 13.5t-4.5 13.5l-13 12q-5 5 -13 5t-13 -6l-79 -78v107q2 39 -27 86q-17 27 -35 43q-19 15 -32 22
l-23 10l-39 13l-40 11q-16 -1 -21 -15q-2 -7 0.5 -13t6.5 -8l4 -3q24 -6 37 -9l31 -10q6 -3 15 -7q13 -7 17 -9q27 -19 41 -43q11 -15 16.5 -31.5t5.5 -24.5v-9v-110l-78 78q-6 6 -13.5 6t-13.5 -5l-12 -12q-5 -6 -5 -13.5t6 -13.5zM144 738q-34 0 -58 -24t-24 -58v-274
q0 -34 24 -58t58 -24h274q34 0 58 24t24 58v274q0 34 -24 58t-58 24h-274zM157 677h248q14 0 24 -10t10 -24v-248q0 -14 -10 -24t-24 -10h-248q-14 0 -24 10t-10 24v248q0 14 10 24t24 10zM606 276q-34 0 -58 -24t-24 -58v-274q0 -34 24 -58t58 -24h274q34 0 58 24t24 58
v274q0 34 -24 58t-58 24h-274zM619 215h248q14 0 24 -10t10 -24v-248q0 -14 -10 -24t-24 -10h-248q-14 0 -24 10t-10 24v248q0 14 10 24t24 10z" />
    <glyph glyph-name="uniE63F" unicode="&#xe63f;" 
d="M329 260h155v-187q0 -12 8 -20.5t20 -8.5t20 8.5t8 20.5v187h155v-131q0 -12 8 -20t19.5 -8t20 8t8.5 20v318q0 12 -8.5 20t-20 8t-19.5 -8t-8 -20v-145h-155v201q0 12 -8 20.5t-20 8.5t-20 -8.5t-8 -20.5v-201h-155v145q0 12 -8 20t-19.5 8t-20 -8t-8.5 -20v-318
q0 -12 8.5 -20t20 -8t19.5 8t8 20v131zM512 738q-91 0 -174.5 -36t-143.5 -96t-96 -143.5t-36 -174.5t36 -174.5t96 -143.5t143.5 -96t174.5 -36t174.5 36t143.5 96t96 143.5t36 174.5t-36 174.5t-96 143.5t-143.5 96t-174.5 36zM512 693q110 0 203 -54.5t147.5 -147.5
t54.5 -203t-54.5 -203t-147.5 -147.5t-203 -54.5t-203 54.5t-147.5 147.5t-54.5 203t54.5 203t147.5 147.5t203 54.5z" />
    <glyph glyph-name="uniE640" unicode="&#xe640;" 
d="M62 79q0 -27 19.5 -46.5t46.5 -19.5v71v1q-11 12 -11 29v449q0 19 17.5 36.5t36.5 17.5h572q14 0 28 -10l1 -1h80q0 28 -19.5 47t-46.5 19h-658q-27 0 -46.5 -19t-19.5 -47v-527zM268 90v-74h598v135l-184 184l-214 -214l-85 85zM301 359.5q0 -28.5 20 -48.5t48.5 -20
t48.5 20t20 48.5t-20 48.5t-48.5 20t-48.5 -20t-20 -48.5zM172 -30q0 -28 19.5 -47t46.5 -19h658q27 0 46.5 19t19.5 47v527q0 27 -19.5 46.5t-46.5 19.5h-658q-27 0 -46.5 -19.5t-19.5 -46.5v-527zM227 4v458q0 19 13.5 32.5t32.5 13.5h588q19 0 32.5 -13.5t13.5 -32.5
v-458q0 -19 -13.5 -32t-32.5 -13h-588q-19 0 -32.5 13t-13.5 32z" />
    <glyph glyph-name="uniE641" unicode="&#xe641;" 
d="M311 550q-11 0 -18 -7.5t-7 -17.5v-13q0 -10 7 -17.5t18 -7.5h239q10 0 17.5 7.5t7.5 17.5v13q0 10 -7.5 17.5t-17.5 7.5h-239zM311 350q-11 0 -18 -7.5t-7 -17.5v-13q0 -10 7 -17t18 -7h402q11 0 18 7t7 17v13q0 10 -7 17.5t-18 7.5h-402zM311 150q-11 0 -18 -7.5
t-7 -17.5v-12q0 -11 7 -18t18 -7h402q11 0 18 7t7 18v12q0 10 -7 17.5t-18 7.5h-402zM210 750q-31 0 -53 -22t-22 -53v-750q0 -31 22 -53t53 -22h604q31 0 53 22t22 53v750q0 31 -22 53t-53 22h-604zM250 687h524q22 0 37 -15t15 -37v-670q0 -22 -15 -37t-37 -15h-524
q-22 0 -37 15t-15 37v670q0 22 15 37t37 15z" />
    <glyph glyph-name="uniE642" unicode="&#xe642;" 
d="M910 629l-240 -240q-6 -6 -9 -14l-2 -17v-457q-1 -27 -22.5 -44t-40.5 -19q-14 0 -34 5.5t-30 14.5l-71 70q-2 3 -6.5 7t-10.5 14t-5 17t6 10.5t10 4.5h5q16 0 24 -1l22 -1q3 -1 7.5 -3.5t6.5 -4.5l3 -2l32 -34q1 -2 3.5 -4t9.5 -6t11 0q6 3 9 8t2 8v3v429q0 10 4 20
l10 15l240 236q8 6 8 17q0 8 -6.5 14.5t-14.5 6.5h-631q-9 0 -15 -6.5t-6 -14.5q0 -11 7 -17l231 -233q9 -8 14 -19q1 -4 2 -9.5t1 -9.5v-3v-238q0 -17 -4 -25q-3 -4 -12.5 -12.5t-17.5 -14.5l-8 -6q-1 -1 -2.5 -2t-6.5 -3t-10 1q-4 2 -6 6.5t-2 8.5v4v262q0 12 -3 22
q-1 5 -4.5 10.5t-6.5 8.5l-3 3l-234 234q-20 19 -20 46q0 26 18.5 44.5t44.5 18.5h710q26 0 44.5 -18.5t18.5 -44.5q0 -27 -20 -46z" />
    <glyph glyph-name="uniE643" unicode="&#xe643;" 
d="M68 484l-3 -5v-538q0 -3 2 -5l5 -2h689q11 2 13 3q28 14 48.5 34.5t30.5 37.5t16 37.5t6.5 29t1.5 18.5q0 3 2 4q29 27 42.5 58.5t10 59t-8.5 44t-11 28.5q-2 3 1 6q29 29 39.5 60.5t4.5 55.5t-20 45.5t-27.5 33.5t-24.5 18q-8 6 -17.5 8.5t-14.5 2.5l-6 1h-158
q-1 0 -2 0.5t-3 2.5t-2 5q5 76 -2 133.5t-21 89.5t-34 52.5t-40 26t-40 4.5t-33.5 -5t-21.5 -9q-4 -3 -4 -9q0 -60 -10.5 -110t-27.5 -82.5t-37.5 -57.5t-41.5 -38.5t-38 -22t-27 -11.5l-11 -2h-221q-2 0 -4 -2zM132 419l5 2h84q3 0 5 -2l1 -4v-409q0 -3 -1 -5l-5 -2h-84
q-3 0 -5 2t-2 5v409q0 2 2 4z" />
    <glyph glyph-name="uniE644" unicode="&#xe644;" 
d="M697 -74h-52v685q0 9 -9 9h-247q-8 0 -8 -9v-685h-53v685q0 26 18 44t43 18h247q25 0 43 -18t18 -44v-685zM953 -101h-881q-25 0 -43 18.5t-18 43.5v438q0 26 18.5 44.5t44.5 18.5h234q22 0 39.5 -14.5t21.5 -35.5l12 -12l-39 -38l-25 26v11q0 9 -9 9h-234q-9 0 -9 -9
l-1 -438q0 -9 8 -9h881q9 0 9 9l-2 279q0 4 -2.5 6.5t-6.5 2.5h-233q-9 0 -9 -9v-11l-26 -26l-38 38l11 12q4 22 21.5 36.5t40.5 14.5h233q26 0 44.5 -18.5t18.5 -45.5v-279q0 -25 -18 -43.5t-43 -18.5zM497 718v97h-37v22q8 0 15 1.5t13 5t10 9.5t5 14h24v-149h-30z
M128.5 620q3.5 11 10.5 19.5t17 13t23 4.5q10 0 19.5 -3t16.5 -9t11 -15t4 -20t-3.5 -19t-9.5 -14.5t-13 -11.5l-16 -10q-7 -5 -14.5 -11t-12.5 -13h70v-26h-109q0 13 4 22.5t10 17t15 14t18 12.5q5 4 10.5 7.5t10 7.5t7.5 9.5t3 12.5q0 11 -6 17t-16 6q-7 0 -11.5 -3t-7 -8
t-4 -11t-1.5 -12h-28q-1 12 2.5 23zM849.5 454.5q5.5 0.5 10 2.5t7.5 5.5t3 10.5q0 9 -6.5 14.5t-14.5 5.5q-11 0 -17 -7.5t-6 -19.5h-28q0 12 4 21t10.5 16t16 11t20.5 4q9 0 18 -3t16 -8t11.5 -13t4.5 -18q0 -11 -5.5 -19t-15.5 -11v-1q12 -2 19 -11.5t7 -22.5
q0 -11 -4.5 -20.5t-12 -15.5t-17.5 -9t-21 -3q-12 0 -22.5 3.5t-17.5 10.5t-11 17t-4 23h29q0 -6 1.5 -11.5t5 -9.5t8 -6.5t11.5 -2.5q10 0 17 6.5t7 17.5q0 8 -3.5 12.5t-8.5 6.5t-11 2.5t-11 0.5v21q5 0 10.5 0.5z" />
    <glyph glyph-name="uniE645" unicode="&#xe645;" 
d="M353 563l-1 -5l-2 -29q0 -3 2 -5l5 -1l260 -4l-280 -280q-8 -8 0 -15l15 -15q7 -8 15 0l280 280l4 -260q0 -3 2 -5l4 -1l29 1q4 0 5 1l1 5l-5 315q0 8 -3 11l-11 3l-315 5q-3 0 -5 -1zM512 789q110 0 203 -54.5t147.5 -147.5t54.5 -203t-54.5 -203t-147.5 -147.5
t-203 -54.5t-203 54.5t-147.5 147.5t-54.5 203t54.5 203t147.5 147.5t203 54.5zM512 834q-91 0 -174.5 -36t-143.5 -96t-96 -143.5t-36 -174.5t36 -174.5t96 -143.5t143.5 -96t174.5 -36t174.5 36t143.5 96t96 143.5t36 174.5t-36 174.5t-96 143.5t-143.5 96t-174.5 36z" />
    <glyph glyph-name="uniE646" unicode="&#xe646;" horiz-adv-x="1025" 
d="M900 384h-107v-329q0 -25 -14.5 -44.5t-36.5 -19.5h-89v232q0 105 -84 105h-114q-84 0 -84 -105v-232h-89q-22 0 -36.5 19.5t-14.5 44.5v329h-107l-1 2l-1 2q9 16 11 18l341 354q16 17 38 17t38 -17l341 -354q2 -2 11 -18l-1 -2zM933 444l-341 355q-33 34 -80 34t-80 -34
l-341 -355q-16 -16 -23 -34t-6.5 -28.5t4.5 -18.5q16 -35 58 -35h51v-273q0 -48 30.5 -84t76.5 -36h146v288q0 4 -0.5 12.5t0 11t1 8.5t1.5 7l5 5q3 3 8 4t12 1h114q7 0 12 -1t8 -4l5 -5q1 -1 1.5 -7t1 -8.5t0 -11t-0.5 -12.5v-288h146q46 0 76.5 36t30.5 84v273h51
q43 0 58 35q4 8 4.5 18.5t-6.5 28.5t-23 34z" />
    <glyph glyph-name="uniE647" unicode="&#xe647;" 
d="M510.5 541q-70.5 0 -120.5 -50t-50 -120.5t50 -120.5t120.5 -50t120.5 50t50 120.5t-50 120.5t-120.5 50zM510 262q-45 0 -76.5 31.5t-31.5 76.5t31.5 77t76.5 32t77 -32t32 -77t-32 -76.5t-77 -31.5zM959 388v1v1v1v1q-2 13 -9 22q-37 53 -97 111q-129 124 -254 156
q-80 21 -163 3q-68 -15 -143 -61q-99 -61 -190 -170q-19 -23 -30 -39q-19 -28 0 -57q37 -52 98 -111q128 -123 253 -155q80 -21 163 -3q68 14 143 61q99 61 190 170q19 23 30 38q7 10 9 23v1v1v2v2v2zM858 339q-2 -3 -25 -27.5t-36 -37t-40 -37t-50 -38.5t-53 -30
t-62.5 -23.5t-65.5 -7.5q-56 0 -110 17.5t-101 50t-79 59.5t-67 63q-14 14 -21.5 25t-11.5 17.5t-1.5 15t4.5 11.5t10.5 13.5t11.5 14.5q27 36 62 69.5t81.5 66.5t104.5 53t117 20q157 0 331 -197q3 -4 11.5 -13t10.5 -12t6.5 -10.5t3.5 -12t-3.5 -13t-9.5 -17.5t-18 -20z
" />
  </font>
</defs>
</svg>
